Coordinates
version=1
nRows=4
nColumns=107
inDegrees=yes

Units are S.I. units (second, meters, Newtons, ...)
If the header above contains a line with 'inDegrees', this indicates whether rotational values are in degrees (yes) or radians (no).

endheader
time	sternoclavicular_r2	sternoclavicular_r3	unrotscap_r3	unrotscap_r2	acromioclavicular_r2	acromioclavicular_r3	acromioclavicular_r1	unrothum_r1	unrothum_r3	unrothum_r2	elv_angle	shoulder_elv	shoulder1_r2	shoulder_rot	elbow_flexion	pro_sup	deviation	flexion	proximal_distal_r1	proximal_distal_r3	cmc_flexion	cmc_abduction	mp_flexion	ip_flexion	mcp2_flexion	mcp2_abduction	pm2_flexion	md2_flexion	mcp3_flexion	mcp3_abduction	pm3_flexion	md3_flexion	mcp4_flexion	mcp4_abduction	pm4_flexion	md4_flexion	mcp5_flexion	mcp5_abduction	pm5_flexion	md5_flexion	bicpt_tx	bicpt_ty	bicpt_tz	bicpt2_tx	bicpt2_ty	bicpt2_tz	ptpt_tx	ptpt_ty	ptpt_tz	FCUpt_tx	FCUpt_ty	FCUpt_tz	EDCpt_tx	EDCpt_ty	EDCpt_tz	APLpt_tx	APLpt_ty	APLpt_tz	FPLpt_tx	FPLpt_ty	FPLpt_tz	FPLpt2_tx	FPLpt2_ty	FPLpt2_tz	PEC1pt2_tx	PEC1pt2_ty	PEC1pt2_tz	PEC1pt3_tx	PEC1pt3_ty	PEC1pt3_tz	PEC2pt2_tx	PEC2pt2_ty	PEC2pt2_tz	PEC2pt3_tx	PEC2pt3_ty	PEC2pt3_tz	PEC3pt2_tx	PEC3pt2_ty	PEC3pt2_tz	PEC3pt3_tx	PEC3pt3_ty	PEC3pt3_tz	DELT2pt2a_tx	DELT2pt2a_ty	DELT2pt2a_tz	DELT2pt2_tx	DELT2pt2_ty	DELT2pt2_tz	LAT1pt2_tx	LAT1pt2_ty	LAT1pt2_tz	LAT1pt3_tx	LAT1pt3_ty	LAT1pt3_tz	LAT2pt2_tx	LAT2pt2_ty	LAT2pt2_tz	LAT2pt3_tx	LAT2pt3_ty	LAT2pt3_tz	LAT3pt2_tx	LAT3pt2_ty	LAT3pt2_tz	LAT3pt3_tx	LAT3pt3_ty	LAT3pt3_tz
      0.00000000	     -0.32684678	      0.13843687	     -0.13843687	      0.32684678	     -0.06617982	      0.53484205	      0.24040782	     -0.24040782	     -0.53484205	      0.06617982	     97.94565803	     77.38387950	     -1.70947422	    -17.55564158	     29.10580072	     27.11977495	      0.18713114	     -0.41133472	      0.22530077	     -0.20566736	      4.22274749	      0.60216655	    -21.16944540	    -27.84101268	    -24.13924061	     13.68852963	      9.59434129	    -23.66278756	     37.04639377	     11.17518016	     82.61917068	     55.23810522	     37.74679788	      0.00091454	     80.20156039	     37.83046455	     -4.18055706	    -14.22064133	    -16.48819984	      4.92536211	      0.00086273	     -0.03093597	     -0.00483734	      0.01636058	     -0.01810673	     -0.00872871	      0.00554615	     -0.06619572	     -0.00223464	      0.00650907	     -0.18373945	     -0.00023252	     -0.00325437	      0.00088189	      0.00019393	      0.00027916	      0.00011166	      0.00055832	      0.00035733	      0.00107198	      0.00060299	      0.00004172	     -0.00009567	     -0.00011480	      0.00253647	      0.00889915	      0.00619072	     -0.00829728	      0.02003384	     -0.01900206	      0.00253647	      0.00889915	      0.00619072	      0.00055888	      0.01857215	     -0.00975898	      0.00399373	      0.00494871	      0.01607849	      0.00000000	      0.00801030	      0.00000000	     -0.00726549	     -0.03357603	     -0.00660613	      0.01232577	     -0.00035808	     -0.00249773	     -0.00090281	      0.01513286	     -0.00619072	      0.00249348	      0.02183947	     -0.01805625	     -0.00606174	      0.01311228	     -0.00554585	     -0.01263938	      0.02768626	     -0.03099657	     -0.02373108	      0.01465996	     -0.00743746	     -0.01573474	      0.03198536	     -0.03873496
      0.03333333	     -0.32337283	      0.13696547	     -0.13696547	      0.32337283	     -0.06547642	      0.52915740	      0.23785261	     -0.23785261	     -0.52915740	      0.06547642	     98.74811493	     76.56139288	     -1.72347974	    -21.57687558	     29.10455244	     30.71897834	      0.17505555	     -0.42747464	      0.21249257	     -0.21373732	      3.15765767	      0.34319209	    -20.86295101	    -27.51499452	    -22.84562395	     13.71380361	      9.00396588	    -24.66487727	     38.85368904	     11.08642635	     81.90460450	     54.42449520	     38.37032495	     -0.26399944	     80.51347416	     37.53045975	     -3.87407734	    -14.20706252	    -16.24481430	      4.97015929	      0.00086269	     -0.03093583	     -0.00483731	      0.01645855	     -0.01810639	     -0.00840041	      0.00528021	     -0.06636768	     -0.00252458	      0.00685913	     -0.18367590	     -0.00028810	     -0.00368627	      0.00101599	      0.00018971	      0.00028434	      0.00011374	      0.00056868	      0.00036395	      0.00109186	      0.00061417	      0.00004225	     -0.00007341	     -0.00008809	      0.00250951	      0.00880457	      0.00612492	     -0.00820909	      0.01982091	     -0.01880009	      0.00250951	      0.00880457	      0.00612492	      0.00055294	      0.01837475	     -0.00965525	      0.00396284	      0.00489611	      0.01600396	      0.00000000	      0.00783972	      0.00000000	     -0.00718827	     -0.03321917	     -0.00646454	      0.01466957	     -0.00048085	     -0.00386499	     -0.00089322	      0.01497202	     -0.00612492	      0.00246698	      0.02160734	     -0.01786434	     -0.00599731	      0.01297291	     -0.00548690	     -0.01250504	      0.02739199	     -0.03066712	     -0.02347885	      0.01450414	     -0.00735841	     -0.01556750	      0.03164540	     -0.03832326
      0.06666667	     -0.32356001	      0.13704475	     -0.13704475	      0.32356001	     -0.06551432	      0.52946369	      0.23799028	     -0.23799028	     -0.52946369	      0.06551432	     98.72986122	     76.60570774	     -1.72316115	    -21.59279110	     29.10111498	     30.71745787	      0.17512559	     -0.42755066	      0.21256730	     -0.21377533	      3.15341245	      0.34081000	    -20.86450109	    -27.51499370	    -22.84637421	     13.71306368	      9.00421449	    -24.66419400	     38.85590614	     11.08686610	     81.90500996	     54.42408567	     38.37035287	     -0.26326221	     80.51469317	     37.53045408	     -3.87612947	    -14.20672585	    -16.24545247	      4.97012085	      0.00086257	     -0.03093543	     -0.00483725	      0.01645850	     -0.01810546	     -0.00840055	      0.00528033	     -0.06636761	     -0.00252446	      0.00685898	     -0.18367593	     -0.00028808	     -0.00368609	      0.00101594	      0.00018971	      0.00028436	      0.00011374	      0.00056872	      0.00036398	      0.00109194	      0.00061421	      0.00004220	     -0.00007331	     -0.00008797	      0.00251097	      0.00880966	      0.00612846	     -0.00821384	      0.01983238	     -0.01881097	      0.00251097	      0.00880966	      0.00612846	      0.00055326	      0.01838539	     -0.00966084	      0.00396451	      0.00489894	      0.01600801	      0.00000000	      0.00784886	      0.00000000	     -0.00719243	     -0.03323839	     -0.00647213	      0.01467841	     -0.00048135	     -0.00387090	     -0.00089373	      0.01498068	     -0.00612846	      0.00246841	      0.02161985	     -0.01787468	     -0.00600079	      0.01298042	     -0.00549008	     -0.01251228	      0.02740784	     -0.03068487	     -0.02349244	      0.01451254	     -0.00736267	     -0.01557651	      0.03166372	     -0.03834544
      0.10000000	     -0.32190898	      0.13634545	     -0.13634545	      0.32190898	     -0.06518002	      0.52676199	      0.23677589	     -0.23677589	     -0.52676199	      0.06518002	     99.15194327	     76.21481176	     -1.73052787	    -23.30903389	     28.99370385	     31.67141590	      0.16657231	     -0.46173089	      0.20335151	     -0.23086545	      1.45833551	     -0.17693828	    -20.81651699	    -24.50609612	    -21.96226425	     13.66857258	      8.46566441	    -21.14969226	     40.54635185	     10.97820309	     82.29536826	     50.48169950	     38.51528147	      0.06146443	     81.45431929	     35.75831738	     -4.01586847	    -14.19032560	    -15.83728940	      4.93208825	      0.00085902	     -0.03092312	     -0.00483527	      0.01647951	     -0.01807628	     -0.00831049	      0.00520984	     -0.06641319	     -0.00260130	      0.00695243	     -0.18365847	     -0.00030118	     -0.00380056	      0.00105215	      0.00018741	      0.00029412	      0.00011765	      0.00058823	      0.00037647	      0.00112941	      0.00063529	      0.00003098	     -0.00003530	     -0.00004236	      0.00249815	      0.00876471	      0.00609719	     -0.00817193	      0.01973118	     -0.01871499	      0.00249815	      0.00876471	      0.00609719	      0.00055044	      0.01829157	     -0.00961154	      0.00394975	      0.00487394	      0.01597207	      0.00000000	      0.00776841	      0.00000000	     -0.00715573	     -0.03306879	     -0.00640534	      0.01561254	     -0.00053568	     -0.00453115	     -0.00088917	      0.01490424	     -0.00609719	      0.00245581	      0.02150953	     -0.01778347	     -0.00597017	      0.01291419	     -0.00546207	     -0.01244843	      0.02726799	     -0.03052829	     -0.02337256	      0.01443848	     -0.00732510	     -0.01549702	      0.03150215	     -0.03814978
